<?xml version="1.0" standalone="no"?><!DOCTYPE svg PUBLIC "-//W3C//DTD SVG 20010904//EN" "http://www.w3.org/TR/2001/REC-SVG-20010904/DTD/svg10.dtd"><svg version="1.0" xmlns="http://www.w3.org/2000/svg" viewBox="0 0 512 512" preserveAspectRatio="xMidYMid meet"><g transform="translate(0,512) scale(0.1,-0.1)" fill="#000000" stroke="none"><path d="M2315 5109 c-382 -37 -774 -169 -1101 -372 -211 -131 -254 -175 -254 -263 0 -126 142 -199 246 -127 250 172 433 268 646 338 153 50 341 91 466 101 l82 7 0 -210 c0 -227 6 -265 56 -330 46 -61 99 -83 240 -99 228 -27 381 -69 559 -154 104 -50 251 -144 320 -204 l40 -35 -114 -114 -113 -115 -64 49 c-321 243 -729 319 -1124 209 -93 -26 -274 -112 -361 -172 l-66 -46 -113 113 -112 113 51 40 c110 88 268 172 435 234 117 42 156 86 156 171 0 77 -63 145 -142 154 -79 9 -353 -109 -543 -234 -458 -301 -780 -814 -847 -1345 l-12 -98 -159 0 -160 0 7 83 c30 370 198 785 458 1134 43 59 50 133 16 183 -33 49 -83 80 -130 80 -85 0 -127 -38 -250 -224 -402 -610 -526 -1338 -348 -2046 59 -235 182 -525 306 -720 204 -321 503 -620 824 -824 100 -64 351 -186 475 -232 128 -47 367 -107 520 -130 166 -25 541 -26 705 0 366 56 676 166 977 347 98 59 130 94 138 153 18 117 -102 217 -208 173 -19 -8 -73 -38 -119 -66 -168 -101 -387 -191 -585 -241 -202 -51 -316 -64 -553 -64 -243 0 -349 13 -570 70 -779 203 -1393 820 -1600 1609 -25 95 -60 305 -60 357 l0 37 222 3 c248 3 267 8 334 75 52 52 65 86 80 217 18 154 28 208 65 328 55 183 141 353 247 491 l45 59 112 -112 113 -113 -45 -65 c-91 -134 -163 -303 -199 -474 -26 -118 -25 -371 0 -493 73 -349 271 -639 568 -832 44 -29 95 -55 114 -59 101 -19 194 56 194 156 0 61 -35 106 -128 166 -168 108 -314 285 -386 465 -84 214 -86 460 -6 682 101 277 365 522 640 592 36 9 73 18 82 21 15 4 17 -15 20 -223 3 -212 5 -231 25 -269 33 -62 93 -111 160 -129 156 -43 226 -99 274 -215 23 -58 18 -185 -10 -243 -71 -144 -237 -218 -383 -172 -166 52 -257 222 -216 400 30 127 -31 215 -148 215 -92 0 -143 -53 -169 -176 -74 -350 154 -694 506 -760 212 -41 415 22 569 176 117 117 177 251 187 415 16 277 -147 529 -409 632 l-68 26 0 159 c0 187 -11 177 143 124 146 -50 244 -113 367 -236 111 -111 173 -203 224 -331 49 -125 60 -193 59 -349 0 -173 -19 -254 -89 -399 -147 -307 -408 -494 -756 -545 -109 -15 -170 -44 -212 -99 -50 -65 -56 -103 -56 -328 0 -243 16 -220 -137 -190 -537 105 -975 462 -1184 964 -43 104 -78 132 -163 132 -72 0 -114 -24 -141 -81 -29 -62 -17 -123 53 -268 126 -261 285 -467 497 -644 300 -252 658 -402 1050 -442 129 -13 188 0 253 56 82 70 87 87 90 352 2 127 5 232 7 232 1 0 40 7 85 16 367 69 701 320 884 664 89 169 146 398 146 591 0 221 -71 471 -184 653 -25 41 -46 77 -46 82 0 5 72 81 160 169 173 174 192 203 193 296 1 103 -31 154 -166 266 -242 202 -536 346 -831 408 -61 13 -141 27 -178 31 l-67 7 -3 231 c-3 263 -8 280 -90 350 -72 62 -130 72 -313 55z"/><path d="M3082 5024 c-43 -22 -82 -89 -82 -140 0 -51 36 -112 80 -135 19 -9 100 -38 180 -64 502 -160 949 -517 1223 -977 147 -247 245 -520 293 -823 25 -154 25 -486 1 -645 -59 -376 -202 -724 -416 -1010 -31 -41 -59 -79 -63 -85 -4 -6 -56 38 -122 104 l-115 115 35 45 c60 80 146 223 195 326 215 452 247 965 89 1433 -50 150 -91 192 -182 192 -58 0 -108 -28 -135 -76 -31 -53 -29 -92 12 -213 62 -183 79 -299 79 -516 0 -157 -4 -208 -23 -295 -113 -531 -448 -951 -926 -1162 -157 -70 -154 -68 -181 -114 -63 -107 9 -234 133 -234 112 0 435 170 618 325 l67 58 154 -154 c168 -169 201 -191 295 -192 93 -1 153 35 245 146 611 743 754 1779 366 2657 -296 671 -843 1167 -1543 1401 -144 48 -228 58 -277 33z"/></g></svg> 